<?xml version="1.0" encoding="UTF-8"?>
<svg id="Layer_2" data-name="Layer 2" xmlns="http://www.w3.org/2000/svg" viewBox="0 0 590.28 586.32">
  <defs>
    <style>
      .cls-1 {
        stroke-width: 0px;
      }
    </style>
  </defs>
  <rect class="cls-1" x="73.5" y="0" width="47" height="194" rx="23.39" ry="23.39"/>
  <rect class="cls-1" x="73.5" y="0" width="47" height="194" rx="23.39" ry="23.39" transform="translate(194 0) rotate(90)"/>
  <circle class="cls-1" cx="408.5" cy="191" r="104.5"/>
  <circle class="cls-1" cx="225.5" cy="325" r="104.5"/>
  <path class="cls-1" d="m503,264.5s64,27,78,72,8,80,8,80c0,0,1,34-84,34h-88.78s-17.22-46-82.22-69c19-36,10-89,10-89,0,0,82,58,159-28Z"/>
  <path class="cls-1" d="m321,399.5s82,28,85,101-8,90-122,85c-115,1-202.44.81-202.44.81,0,0-63.56-13.81-35.56-95.81,25-61,82.67-91,82.67-91,0,0,89.33,104,192.33,0Z"/>
</svg>