<?xml version="1.0" encoding="UTF-8"?>
<svg id="Layer_2" data-name="Layer 2" xmlns="http://www.w3.org/2000/svg" viewBox="0 0 804 773">
  <defs>
    <style>
      .cls-1 {
        stroke-width: 0px;
      }
    </style>
  </defs>
  <path class="cls-1" d="m472,109c-183.36,0-332,148.64-332,332s148.64,332,332,332,332-148.64,332-332S655.36,109,472,109Zm-.08,622.52c-160.67,0-290.92-130.25-290.92-290.92S311.25,149.68,471.92,149.68s290.92,130.25,290.92,290.92-130.25,290.92-290.92,290.92Z"/>
  <path class="cls-1" d="m472,109c-67.93,0-123,148.64-123,332s55.07,332,123,332,123-148.64,123-332-55.07-332-123-332Zm0,622c-45.84,0-83-130.04-83-290.44s37.16-290.44,83-290.44,83,130.04,83,290.44-37.16,290.44-83,290.44Z"/>
  <rect class="cls-1" x="174" y="400" width="598" height="40"/>
  <path class="cls-1" d="m708.7,271.55s-218.3,100.1-473.57,0c11.87-21.55,15.87-24.55,15.87-24.55,0,0,223.12,63.29,443-1"/>
  <path class="cls-1" d="m236.12,618.94s218.3-100.1,473.57,0c-11.87,21.55-15.87,24.55-15.87,24.55,0,0-223.12-63.29-443,1"/>
  <rect class="cls-1" x="91.86" width="50.87" height="236" rx="25.44" ry="25.44"/>
  <rect class="cls-1" x="92.56" y=".71" width="50.87" height="236" rx="25.44" ry="25.44" transform="translate(236.71 .71) rotate(90)"/>
</svg>