<?xml version="1.0" encoding="UTF-8"?>
<svg id="Layer_1" data-name="Layer 1" xmlns="http://www.w3.org/2000/svg" viewBox="0 0 119.28 156.5">
  <defs>
    <style>
      .cls-1 {
        fill: none;
        stroke: #000;
        stroke-linecap: round;
        stroke-miterlimit: 10;
        stroke-width: 9px;
      }

      .cls-2 {
        stroke-width: 0px;
      }
    </style>
  </defs>
  <path class="cls-1" d="m27,4.5h79.56c4.54,0,8.22,3.68,8.22,8.22v117.11"/>
  <path class="cls-2" d="m84,23.5H12c-6.6,0-12,5.4-12,12v114.74c0,3.44,2.82,6.26,6.26,6.26h0c1.13,0,2.23-.36,3.15-1.02l35.34-25.62c1.94-1.41,4.57-1.42,6.53-.04l37.09,26.23c.41.29.91.45,1.41.45h0c3.42,0,6.22-2.8,6.22-6.22V35.5c0-6.6-5.4-12-12-12Z"/>
</svg>