<?xml version="1.0" encoding="UTF-8"?>
<svg xmlns="http://www.w3.org/2000/svg" viewBox="0 0 247 248.12">
  <defs>
    <style>
      .cls-1 {
        stroke-width: 0px;
      }
    </style>
  </defs>
  <g id="Layer_5" data-name="Layer 5">
    <polygon class="cls-1" points="77 79 70 101 84.67 101 77 79"/>
  </g>
  <g id="Layer_6" data-name="Layer 6">
    <path class="cls-1" d="m123.5,0C55.29,0,0,50.59,0,113s55.29,113,123.5,113,123.5-50.59,123.5-113S191.71,0,123.5,0Zm-27.5,132l-7-16h-23l-8,16c-10,10-11.33-5-11.33-5,0,0,20.33-56,25.48-69,5.15-9,10.85,0,10.85,0l25,69c-1,15-12,5-12,5Zm108.44-12.95c0,.24-.15.44-.37.52l-8.07.43c-1,0-2.42,0-3,1l-15.93,30.88c-.04.08-.09.16-.13.24l-.85,1.7c-1.18,2.36-.33,5.22,1.93,6.56l12.01,7.1c2.29,1.35,3.15,4.29,1.88,6.62-1.84,3.38-5.94,4.22-8.86,2.27l-13.39-8.92c-.44-.3-.95-.48-1.49-.52l-8.41-.76c-1.15-.1-2.31.19-3.27.83l-14.15,9.44c-2.37,1.58-5.41,1.75-7.94.43l-.96-.5c-2.89-1.51-3.09-5.57-.36-7.36l14.96-7.98c1.24-.66,2.17-1.79,2.57-3.14l.72-2.39c1.02-3.39.09-7.06-2.41-9.56l-8.01-8.01c-.51-.51-.48-1.33.05-1.81l7.17-6.37c.45-.4,1.14-.31,1.47.19l12.68,19.02.02.03c1.06,1.56,3.39,1.47,4.33-.16l15.34-26.83c.45-.71-.16-1.98-1-2l-43.97-.91c-2.27-.04-4.3-1.57-4.84-3.77-.96-3.87,1.94-7.32,5.65-7.32h24.17v-15.47c0-1.79,1.68-3.11,3.42-2.67l4.22,1.05c2.53.63,4.26,2.97,4.13,5.58l-.59,11.51h30.59c.37,0,.67.3.67.67v10.38Z"/>
  </g>
  <g id="Layer_4" data-name="Layer 4">
    <path class="cls-1" d="m34,182s-3,29-29,56,69-7,77-21-48-35-48-35Z"/>
  </g>
</svg>