<?xml version="1.0" encoding="UTF-8"?>
<svg id="Layer_3" data-name="Layer 3" xmlns="http://www.w3.org/2000/svg" viewBox="0 0 191 191">
  <defs>
    <style>
      .cls-1 {
        stroke-width: 0px;
      }
    </style>
  </defs>
  <rect class="cls-1" x="87" y="0" width="17" height="48" rx="8.5" ry="8.5"/>
  <rect class="cls-1" x="87" y="143" width="17" height="48" rx="8.5" ry="8.5"/>
  <rect class="cls-1" x="15.5" y="71.5" width="17" height="48" rx="8.5" ry="8.5" transform="translate(119.5 71.5) rotate(90)"/>
  <rect class="cls-1" x="158.5" y="71.5" width="17" height="48" rx="8.5" ry="8.5" transform="translate(262.5 -71.5) rotate(90)"/>
  <rect class="cls-1" x="137.5" y="21.5" width="17" height="48" rx="8.5" ry="8.5" transform="translate(74.94 -89.91) rotate(45)"/>
  <rect class="cls-1" x="36.5" y="21.33" width="17" height="48" rx="8.5" ry="8.5" transform="translate(-18.88 45.1) rotate(-45)"/>
  <rect class="cls-1" x="137.5" y="121.33" width="17" height="48" rx="8.5" ry="8.5" transform="translate(-60 145.8) rotate(-45)"/>
  <rect class="cls-1" x="36.5" y="121.33" width="17" height="48" rx="8.5" ry="8.5" transform="translate(-25.95 279.92) rotate(-135)"/>
  <path class="cls-1" d="m95,53c-23.2,0-42,18.8-42,42s18.8,42,42,42,42-18.8,42-42-18.8-42-42-42Zm0,78.96V59.04c19.46.79,35,16.81,35,36.46s-15.54,35.67-35,36.46Z"/>
</svg>