<?xml version="1.0" encoding="UTF-8"?>
<svg id="Layer_2" data-name="Layer 2" xmlns="http://www.w3.org/2000/svg" viewBox="0 0 148 148">
  <defs>
    <style>
      .cls-1 {
        stroke-width: 0px;
      }
    </style>
  </defs>
  <path class="cls-1" d="m74,0C33.13,0,0,33.13,0,74s33.13,74,74,74,74-33.13,74-74S114.87,0,74,0Zm-.5,139c-36.17,0-65.5-29.33-65.5-65.5S37.33,8,73.5,8s65.5,29.33,65.5,65.5-29.33,65.5-65.5,65.5Z"/>
  <path class="cls-1" d="m74.5,24c-16.84,0-30.5,13.66-30.5,30.5s13.66,30.5,30.5,30.5,30.5-13.66,30.5-30.5-13.66-30.5-30.5-30.5Zm0,53c-12.43,0-22.5-10.07-22.5-22.5s10.07-22.5,22.5-22.5,22.5,10.07,22.5,22.5-10.07,22.5-22.5,22.5Z"/>
  <path class="cls-1" d="m28.71,124.45c3.81-21.84,22.86-38.45,45.79-38.45s41.61,16.29,45.68,37.82l5.1-5.1c-5.87-22.28-26.15-38.72-50.28-38.72s-45.76,17.55-50.82,40.98l4.53,3.47Z"/>
</svg>