<?xml version="1.0" encoding="UTF-8"?>
<svg id="Layer_4" data-name="Layer 4" xmlns="http://www.w3.org/2000/svg" viewBox="0 0 289.98 330.53">
  <defs>
    <style>
      .cls-1 {
        stroke-width: 0px;
      }
    </style>
  </defs>
  <rect class="cls-1" x="124.76" y="97.53" width="41" height="42" rx="12" ry="12"/>
  <path class="cls-1" d="m145.29,159.54c-6.25.24-11.38,5.46-11.53,11.71-.1,4.56,2.34,8.54,6,10.66v27.34c0,1.26,1.02,2.28,2.28,2.28h7.44c1.26,0,2.28-1.02,2.28-2.28v-27.34c3.58-2.08,6-5.94,6-10.38,0-6.78-5.63-12.25-12.47-11.99Z"/>
  <path class="cls-1" d="m288.36,55.97L147.58.44c-1.49-.59-3.14-.59-4.63,0L2.16,55.98c-.84.33-1.4,1.15-1.41,2.05L0,149.09c-.1,11.64,1.68,23.21,5.32,34.27,14.19,43.08,57.06,147.17,139.93,147.17,64.12,0,104.09-62.32,125.4-110.47,12.93-29.22,19.42-60.88,19.32-92.84l-.21-69.18c0-.91-.56-1.73-1.41-2.06Zm-81.6,157.49c0,9.93-8.13,18.06-18.06,18.06h-86.88c-9.93,0-18.06-8.13-18.06-18.06v-55.88c0-9.93,8.13-18.06,18.06-18.06h1c1.39,0,2.46-1.27,2.18-2.64-.16-.76-.24-1.55-.24-2.36v-26.77c0-17.17,14.05-31.23,31.23-31.23h19.55c17.17,0,31.23,14.05,31.23,31.23v26.77c0,.81-.08,1.6-.24,2.36-.28,1.37.79,2.64,2.18,2.64h0c9.93,0,18.06,8.13,18.06,18.06v55.88Z"/>
</svg>