<?xml version="1.0" encoding="UTF-8"?>
<svg id="Layer_1" data-name="Layer 1" xmlns="http://www.w3.org/2000/svg" viewBox="0 0 512 512">
  <defs>
    <style>
      .cls-1 {
        stroke-width: 0px;
      }
    </style>
  </defs>
  <g id="Layer_2" data-name="Layer 2">
    <path class="cls-1" d="m33.42.73l466.7,233.31s26.74,18.62,0,44.57c-34.79,19.98-432.54,215.73-465.91,232.15-1.63.8-3.41,1.22-5.22,1.24-8.59.07-32.52-2.19-28.5-30.01.13-.9.37-1.76.67-2.62,12.63-35.59,65.06-179.48,68.03-187.61.09-.22.28-.38.51-.43l187.34-35.08-187.34-35.23c-.24-.04-.43-.21-.51-.43L.18,29.36c-.1-.26-.15-.53-.16-.81C-.12,24.67.05-3.9,32.5.45c.31.04.63.14.92.28Z"/>
  </g>
</svg>